{
    "asset" : {
        "generator" : "Khronos glTF Blender I/O v1.0.5",
        "version" : "2.0"
    },
    "scene" : 0,
    "scenes" : [
        {
            "name" : "Scene",
            "nodes" : [
                0
            ]
        }
    ],
    "nodes" : [
        {
            "mesh" : 0,
            "name" : "Text"
        }
    ],
    "materials" : [
        {
            "doubleSided" : true,
            "name" : "Material.001",
            "pbrMetallicRoughness" : {}
        }
    ],
    "meshes" : [
        {
            "name" : "Text",
            "primitives" : [
                {
                    "attributes" : {
                        "POSITION" : 0,
                        "NORMAL" : 1
                    },
                    "indices" : 2,
                    "material" : 0
                }
            ]
        }
    ],
    "accessors" : [
        {
            "bufferView" : 0,
            "componentType" : 5126,
            "count" : 8295,
            "max" : [
                2.4075002670288086,
                0.05999999865889549,
                0.8090000152587891
            ],
            "min" : [
                -2.4255001544952393,
                -0.05999999865889549,
                -0.8820000290870667
            ],
            "type" : "VEC3"
        },
        {
            "bufferView" : 1,
            "componentType" : 5126,
            "count" : 8295,
            "type" : "VEC3"
        },
        {
            "bufferView" : 2,
            "componentType" : 5123,
            "count" : 21132,
            "type" : "SCALAR"
        }
    ],
    "bufferViews" : [
        {
            "buffer" : 0,
            "byteLength" : 99540,
            "byteOffset" : 0
        },
        {
            "buffer" : 0,
            "byteLength" : 99540,
            "byteOffset" : 99540
        },
        {
            "buffer" : 0,
            "byteLength" : 42264,
            "byteOffset" : 199080
        }
    ],
    "buffers" : [
        {
            "byteLength" : 241344,
            "uri" : "data:application/octet-stream;base64,"
        }
    ]
}
